:SAMPLES-PER-SECOND 30
:FULLY-SPECIFIED
:DEGREES
61
root  3.98197 40.5706 1.26657 17.1487 -87.8497 -20.8742
RightUpLeg  3.23253 -4.18021 1.13498
RightLeg  1.60339 -12.1349 -0.894866
RightFoot  0.827707 -0.479342 4.5614
RightToes  -2.32832e-010 0 -3.6325e-017
Spine  6.65428 -0.157634 0.876308
Spine1  -0.10949 -0.403541 1.45967
HEad  -5.38402 -5.0271 -0.856002
LeftShoulder1  2.48464 -5.6509 -20.7413
LeftArm  -6.27248 14.5676 -53.6744
LeftForeArm  14.9338 -3.32073 -14.2011
LeftHand  -0.330951 -0.0537679 7.12137
RightShoulder  1.48538 2.58104 17.8968
RightArm  -6.15001 -7.80984 55.6029
RightForeArm  24.9013 4.47319 14.1159
RightHand  -0.134646 -4.24489 -12.2386
LeftUpLeg  1.93398 7.25725 4.23057
LeftLeg  4.10927 11.191 2.23035
LeftFoot  -0.95749 0.789051 -8.56906
LeftToes  2.2737e-010 4.38529e-011 2.18788e-011
62
root  3.95865 40.5688 1.26568 12.8618 -87.4104 -16.5899
RightUpLeg  3.27503 -4.1804 1.11824
RightLeg  1.69415 -12.6139 -0.966043
RightFoot  0.7082 -0.480758 4.59554
RightToes  -2.32832e-010 0 -3.6325e-017
Spine  6.75743 -0.103557 1.00902
Spine1  -0.313539 -0.284783 1.1629
HEad  -5.36606 -5.09916 -0.862381
LeftShoulder1  2.49909 -5.68164 -20.8127
LeftArm  -6.58001 14.2281 -53.2962
LeftForeArm  14.2267 -3.50194 -14.0903
LeftHand  -0.339865 0.00946985 7.39407
RightShoulder  1.48056 2.55637 17.919
RightArm  -5.83799 -7.77745 55.3715
RightForeArm  24.5234 4.32384 14.2115
RightHand  -0.116899 -4.41962 -12.2515
LeftUpLeg  1.88877 7.1497 4.15556
LeftLeg  4.10782 10.847 2.26237
LeftFoot  -0.889066 0.790092 -8.57387
LeftToes  2.2737e-010 4.38529e-011 2.18788e-011
63
root  3.94663 40.5682 1.26357 10.8906 -87.0156 -14.6428
RightUpLeg  3.33362 -4.17546 1.12941
RightLeg  1.73905 -13.0353 -0.994509
RightFoot  0.672966 -0.48103 4.61608
RightToes  -2.32832e-010 0 -3.6325e-017
Spine  6.97806 -0.0791882 1.12277
Spine1  -0.599565 -0.201641 0.87404
HEad  -5.26365 -5.06912 -0.8167
LeftShoulder1  2.50841 -5.74932 -20.7078
LeftArm  -6.58964 13.9765 -53.1291
LeftForeArm  13.1619 -3.98257 -13.9789
LeftHand  -0.338601 0.19374 7.6008
RightShoulder  1.48695 2.54936 18.0644
RightArm  -5.78582 -7.6694 55.0753
RightForeArm  24.6222 4.0667 14.2844
RightHand  -0.107613 -4.51424 -12.3044
LeftUpLeg  1.8644 7.10436 4.13913
LeftLeg  4.09014 10.4918 2.27204
LeftFoot  -0.850558 0.786916 -8.50643
LeftToes  2.2737e-010 4.38529e-011 2.18788e-011
64
root  3.94498 40.5707 1.2584 8.94493 -86.6447 -12.6594
RightUpLeg  3.29017 -4.15987 1.12004
RightLeg  1.81757 -13.3909 -1.03848
RightFoot  0.582431 -0.479316 4.64536
RightToes  -2.32832e-010 0 -3.6325e-017
Spine  7.189 -0.0840145 1.05497
Spine1  -0.928258 -0.197137 0.820722
HEad  -5.18025 -4.83925 -0.8614
LeftShoulder1  2.51491 -5.77368 -20.7066
LeftArm  -6.09508 13.6985 -52.9451
LeftForeArm  12.0461 -4.64645 -13.9039
LeftHand  -0.34013 0.212458 7.64376
RightShoulder  1.49699 2.5846 18.0889
RightArm  -6.31561 -7.55153 54.8856
RightForeArm  25.4036 3.63285 14.2961
RightHand  -0.117074 -4.41727 -12.2388
LeftUpLeg  1.81288 7.02993 4.07741
LeftLeg  3.95377 10.1939 2.26442
LeftFoot  -0.682197 0.790272 -8.41832
LeftToes  2.2737e-010 4.38529e-011 2.18788e-011
65
root  3.94736 40.5756 1.24762 6.49849 -86.2601 -10.0717
RightUpLeg  3.10447 -4.14477 1.0748
RightLeg  1.95591 -13.7812 -1.11674
RightFoot  0.428365 -0.474645 4.64077
RightToes  -2.32832e-010 0 -3.6325e-017
Spine  7.26703 -0.0915684 0.836146
Spine1  -1.20682 -0.23217 0.954892
HEad  -5.20119 -4.59415 -1.01439
LeftShoulder1  2.52107 -5.75752 -20.8282
LeftArm  -5.15619 13.3108 -52.7313
LeftForeArm  11.1817 -5.40907 -13.8353
LeftHand  -0.347102 -0.0364051 7.49275
RightShoulder  1.4931 2.61051 17.9059
RightArm  -7.03583 -7.47648 54.8708
RightForeArm  26.1644 3.15309 14.2825
RightHand  -0.114998 -4.44072 -12.2921
LeftUpLeg  1.70366 6.88091 3.93294
LeftLeg  3.68505 9.99121 2.25515
LeftFoot  -0.350862 0.811453 -8.40352
LeftToes  2.2737e-010 4.38529e-011 2.18788e-011
66
root  3.9524 40.5784 1.23062 4.78043 -85.9153 -8.2023
RightUpLeg  2.9196 -4.12813 1.05091
RightLeg  2.04109 -14.1993 -1.17482
RightFoot  0.395206 -0.464373 4.53995
RightToes  -2.32832e-010 0 -3.6325e-017
Spine  7.32869 -0.0714284 0.686913
Spine1  -1.44138 -0.222005 1.00415
HEad  -5.2219 -4.5333 -1.117
LeftShoulder1  2.5263 -5.78224 -20.8112
LeftArm  -3.75101 12.9892 -52.7086
LeftForeArm  10.0668 -6.48344 -13.6925
LeftHand  -0.356308 -0.290016 7.36684
RightShoulder  1.47737 2.59503 17.6927
RightArm  -7.37021 -7.42722 54.9365
RightForeArm  26.43 2.82634 14.3004
RightHand  -0.0859583 -4.73941 -12.6172
LeftUpLeg  1.60602 6.77564 3.82708
LeftLeg  3.39169 9.79142 2.21552
LeftFoot  -0.117404 0.8288 -8.41951
LeftToes  2.2737e-010 4.38529e-011 2.18788e-011
67
root  3.96706 40.5772 1.20417 4.30917 -85.6357 -7.65741
RightUpLeg  2.83291 -4.07188 1.11836
RightLeg  2.03786 -14.5592 -1.21147
RightFoot  0.448369 -0.453107 4.41668
RightToes  -2.32832e-010 0 -3.6325e-017
Spine  7.56423 -0.042534 0.685119
Spine1  -1.73198 -0.174571 0.914616
HEad  -5.14506 -4.57717 -1.1342
LeftShoulder1  2.52416 -5.84207 -20.6006
LeftArm  -1.84015 12.8603 -52.9131
LeftForeArm  8.30042 -7.89335 -13.4365
LeftHand  -0.372521 -0.388197 7.57774
RightShoulder  1.46852 2.57001 17.6432
RightArm  -7.18657 -7.33595 54.9235
RightForeArm  26.3833 2.73027 14.3564
RightHand  -0.0606163 -4.98296 -12.6933
LeftUpLeg  1.48935 6.78205 3.84919
LeftLeg  3.31069 9.49172 2.16627
LeftFoot  -0.122994 0.827738 -8.39903
LeftToes  2.2737e-010 4.38529e-011 2.18788e-011
68
root  4.00051 40.5689 1.16318 4.38701 -85.3383 -7.66597
RightUpLeg  2.68405 -3.96009 1.27611
RightLeg  2.12668 -14.9339 -1.30191
RightFoot  0.337722 -0.447772 4.40756
RightToes  -2.32832e-010 0 -3.6325e-017
Spine  7.95934 -0.038039 0.711707
Spine1  -2.14895 -0.153769 0.872448
HEad  -5.08067 -4.53685 -1.18729
LeftShoulder1  2.51025 -5.84434 -20.4344
LeftArm  0.230571 12.7706 -53.1174
LeftForeArm  6.59485 -9.23754 -13.1203
LeftHand  -0.41471 -0.588319 8.16037
RightShoulder  1.48201 2.59448 17.7778
RightArm  -6.95647 -7.16875 54.7559
RightForeArm  26.3437 2.66578 14.4092
RightHand  -0.0667304 -4.90738 -12.1634
LeftUpLeg  1.12713 6.76385 3.91776
LeftLeg  3.65539 9.17944 2.2195
LeftFoot  -0.16015 0.832514 -8.42697
LeftToes  2.2737e-010 4.38529e-011 2.18788e-011
69
root  4.0566 40.5466 1.11281 4.55704 -84.9977 -7.67911
RightUpLeg  2.28083 -3.87358 1.44584
RightLeg  2.48977 -15.4111 -1.4454
RightFoot  0.0888519 -0.450227 4.49709
RightToes  -2.32832e-010 0 -3.6325e-017
Spine  8.36614 -0.0165568 0.755386
Spine1  -2.59651 -0.122666 0.940123
HEad  -5.21709 -4.41617 -1.28598
LeftShoulder1  2.49969 -5.79614 -20.4617
LeftArm  2.3138 12.5875 -53.1987
LeftForeArm  5.15232 -10.3963 -12.7835
LeftHand  -0.482366 -1.01747 8.87949
RightShoulder  1.51841 2.69746 17.9764
RightArm  -7.26866 -6.94443 54.5145
RightForeArm  26.3707 2.38303 14.4097
RightHand  -0.0749901 -4.80816 -11.7174
LeftUpLeg  0.395043 6.59337 3.94154
LeftLeg  4.44676 9.00931 2.41974
LeftFoot  -0.183892 0.837518 -8.55706
LeftToes  2.2737e-010 4.38529e-011 2.18788e-011
70
root  4.13342 40.5042 1.06739 5.11118 -84.6565 -8.09314
RightUpLeg  1.72837 -3.9216 1.56637
RightLeg  3.11391 -15.8228 -1.55499
RightFoot  -0.0984966 -0.458386 4.62752
RightToes  -2.32832e-010 0 -3.6325e-017
Spine  8.76383 0.0638082 0.987544
Spine1  -2.82254 -0.0117582 0.994547
HEad  -5.62879 -4.35553 -1.2959
LeftShoulder1  2.50421 -5.7772 -20.5724
LeftArm  4.87348 12.3872 -53.2919
LeftForeArm  2.8269 -11.649 -12.3844
LeftHand  -0.553298 -1.37668 9.65644
RightShoulder  1.56024 2.84372 18.0786
RightArm  -7.93078 -6.67403 54.4088
RightForeArm  26.1066 2.27144 14.3168
RightHand  -0.0500905 -5.0644 -11.8134
LeftUpLeg  -0.58413 6.25945 3.97505
LeftLeg  5.71073 8.94464 2.68599
LeftFoot  -0.536572 0.820398 -8.62996
LeftToes  2.2737e-010 4.38529e-011 2.18788e-011
